# xmcd
#
# Track frame offsets: 
#        150
#        10733
#        21682
#        33065
#        42014
#        52797
#        60074
#        71336
#        81202
#        93491
#        102437
#        112144
#        118585
#        130186
#        140441
#        151209
#        162273
#        171456
#        183482
#        195323
#        207217
#        215661
#        224494
#        233690
#        244473
#        253123
#        263638
#        274920
#        285981
#        295022
#
# Disc length: 4057 seconds
#
# Revision: 0
# Processed by: cddbd v1.5.1PL0 Copyright (c) Steve Scherf et al.
# Submitted via: ExactAudioCopy v0.95a4
#
DISCID=af0fd71e
DTITLE=Various Artist - Boppin' Tonight Vol. 2
DYEAR=1900
DGENRE=Country
TTITLE0=Jimmy Welch - Seawright Blues
TTITLE1=George Stogner - Hardtop Race
TTITLE2=Jim and Edith Young (with Bert Bowling and Miami Valley Boys) - Hi
TTITLE2=ll Billy Moon
TTITLE3=Mick Woodward - Hot Rod Race Navy Style
TTITLE4=Bill and Ben and The Arkansas Travelers - The Sun Shines Brighte
TTITLE4=r
TTITLE5=Bill Loop and His Seneca Indian Boys - My Foolish Heart
TTITLE6=James Prince - Charriot Rise (instr.)
TTITLE7=Tim McCloud - Down, Down, Down
TTITLE8=Roger Smith - Be-Bop Boogie
TTITLE9=Blankenship Brothers - Don't Tell Me Your Sorry
TTITLE10=Jimmy Simpson and His Oil Field Boys - I Broke My Heart
TTITLE11=Country Girl Kay - Arkansas Boogie
TTITLE12=Bud Settlemire - Uncle Bu's Twist (instr.)
TTITLE13=Bill Price - Alone And Blue
TTITLE14=Roy Harris and The Magnolia Boys - South Of San Antonio
TTITLE15=Eddie Jackson and His Swingsters - Rock And Roll Baby
TTITLE16=Ralph Collier - Everybody At The Party Had A Sweetheart But M
TTITLE16=e
TTITLE17=Zeke Clements - I Don't Like It
TTITLE18=Earl Songer and His Rocky Road Ramblers - Mother-In-Law Boogie
TTITLE19=Larry Vincent - Larry's Barnyard Boogie
TTITLE20=Bily Cox and The Covered Wagon Boys - I Can't Wait 'Til Saturda
TTITLE20=y Night
TTITLE21=Danny Ross - Boogie On The Flattop (instr.)
TTITLE22=Wally Deane - Cool, Cool Daddy
TTITLE23=Johnny Henderson - Any Old Port In A Storm
TTITLE24=Mel Kitchen - Is I Am
TTITLE25=Pauline Parker and Marilyn Kaye and Texarkana Hillbillies - Brand
TTITLE25=New Sweetheart
TTITLE26=Frank Steele - Tall Tall Love
TTITLE27=Bill Tutt - Selling What She Used To Give Away
TTITLE28=Danny Rhythm and Band - My Western Home
TTITLE29=Buster Pack and His Lonesome Pine Boys - Indian Boogie
EXTD=
EXTT0=
EXTT1=
EXTT2=
EXTT3=
EXTT4=
EXTT5=
EXTT6=
EXTT7=
EXTT8=
EXTT9=
EXTT10=
EXTT11=
EXTT12=
EXTT13=
EXTT14=
EXTT15=
EXTT16=
EXTT17=
EXTT18=
EXTT19=
EXTT20=
EXTT21=
EXTT22=
EXTT23=
EXTT24=
EXTT25=
EXTT26=
EXTT27=
EXTT28=
EXTT29=
PLAYORDER=
